<?xml version="1.0" encoding="UTF-8" standalone="no"?>
<!-- Created with Inkscape (http://www.inkscape.org/) -->

<svg
   width="225"
   height="300"
   viewBox="0 0 59.531241 79.3755"
   version="1.1"
   id="svg1"
   inkscape:version="1.3.2 (091e20ef0f, 2023-11-25)"
   sodipodi:docname="char1.svg"
   xmlns:inkscape="http://www.inkscape.org/namespaces/inkscape"
   xmlns:sodipodi="http://sodipodi.sourceforge.net/DTD/sodipodi-0.dtd"
   xmlns="http://www.w3.org/2000/svg"
   xmlns:svg="http://www.w3.org/2000/svg">
  <sodipodi:namedview
     id="namedview1"
     pagecolor="#ffffff"
     bordercolor="#000000"
     borderopacity="0.25"
     inkscape:showpageshadow="2"
     inkscape:pageopacity="0.0"
     inkscape:pagecheckerboard="0"
     inkscape:deskcolor="#d1d1d1"
     inkscape:document-units="mm"
     showguides="true"
     inkscape:zoom="0.99906609"
     inkscape:cx="442.41317"
     inkscape:cy="328.80708"
     inkscape:window-width="1920"
     inkscape:window-height="1003"
     inkscape:window-x="0"
     inkscape:window-y="0"
     inkscape:window-maximized="1"
     inkscape:current-layer="layer1">
    <sodipodi:guide
       position="106.25153,86.46068"
       orientation="1,0"
       id="guide1"
       inkscape:locked="false" />
    <sodipodi:guide
       position="116.47787,-65.677347"
       orientation="0,-1"
       id="guide2"
       inkscape:locked="false" />
  </sodipodi:namedview>
  <defs
     id="defs1" />
  <g
     inkscape:label="Layer 1"
     inkscape:groupmode="layer"
     id="layer1">
    <circle
       style="fill:none;stroke:#000000;stroke-width:1.80603;stroke-dasharray:none;stroke-opacity:1"
       id="path12-7"
       cx="21.906801"
       cy="41.093933"
       r="1.676649" />
    <path
       style="fill:#000000;stroke:#000000;stroke-width:1.75354;stroke-dasharray:none;stroke-opacity:1"
       d="m 11.402046,36.656314 c 0,0 -8.4130556,1.80224 -5.7013216,-11.323629 0,0 -6.863094,-8.504628 4.115308,-9.330144 0,0 11.3603756,-17.1978543 17.5064596,-3.058212 0,0 4.7742,-9.7979923 12.75525,-1.354904 0,0 8.31174,-8.1506013 10.37482,3.802996 0,0 8.34437,8.9202 2.66543,11.731254 0,0 2.45998,10.297269 -7.86605,9.476719"
       id="path10" />
    <path
       style="fill:#ffffff;stroke:#000000;stroke-width:1.80603;stroke-dasharray:none;stroke-opacity:1"
       d="m 44.390082,38.183504 c 0,0 3.69316,-0.76888 3.92633,4.49111 0.23317,5.25998 -4.6569,4.47128 -4.6569,4.47128"
       id="path8"
       sodipodi:nodetypes="csc" />
    <path
       style="fill:#ffffff;stroke:#000000;stroke-width:1.80603;stroke-dasharray:none;stroke-opacity:1"
       d="m 14.378099,38.043314 c 0,0 -3.693156,-0.76888 -3.926332,4.4911 -0.233167,5.25999 4.656897,4.47128 4.656897,4.47128"
       id="path8-2"
       sodipodi:nodetypes="csc" />
    <path
       style="fill:#000000;stroke:#000000;stroke-width:1.80603;stroke-dasharray:none;stroke-opacity:1"
       d="m 15.327994,34.979374 v 13.60938"
       id="path5-5" />
    <path
       style="fill:#ffffff;stroke:#000000;stroke-width:0.903014;stroke-dasharray:none;stroke-opacity:1"
       d="m 22.274434,28.807614 h 22.954218 v 6.44039 H 19.988259 Z"
       id="path3" />
    <circle
       style="fill:#ffffff;stroke:#000000;stroke-width:0.903014;stroke-dasharray:none;stroke-opacity:1"
       id="path2"
       cx="16.692095"
       cy="31.690264"
       r="11.2981" />
    <circle
       style="fill:#000000;stroke:#000000;stroke-width:0.903014;stroke-dasharray:none;stroke-opacity:1"
       id="path4"
       cx="16.573198"
       cy="31.644693"
       r="1.9697694" />
    <path
       style="fill:#000000;stroke:#000000;stroke-width:1.80603;stroke-dasharray:none;stroke-opacity:1"
       d="m 43.833952,35.308124 v 13.60937"
       id="path5" />
    <path
       style="fill:#000000;stroke:#000000;stroke-width:1.80603;stroke-dasharray:none;stroke-opacity:1"
       d="m 15.218404,48.552864 h 29.037918 l -2.6878,6.94639 2.00544,3.63172 -4.24273,3.63964 -1.0146,4.29624 -2.60391,1.35281 -1.31384,2.32316 -3.93029,1.99092 -5.01888,-3.69514 -1.31714,-4.30416 h -4.070331 v -3.30871 l -6.816249,-3.66343 2.991645,-4.00956 -3.469884,-3.08743 z"
       id="path6" />
    <path
       style="fill:#ffffff;stroke:#000000;stroke-width:1.80603;stroke-dasharray:none;stroke-opacity:1"
       d="m 22.758287,51.444444 h 15.735365 v 7.69478 H 22.578947 Z"
       id="path7" />
    <path
       style="fill:#ffffff;stroke:#000000;stroke-width:1.80603;stroke-dasharray:none;stroke-opacity:1"
       d="m 29.715552,38.388944 1.84559,1.66459 1.34985,5.43503 h -5.6834"
       id="path9" />
    <path
       style="fill:none;stroke:#000000;stroke-width:1.80603;stroke-dasharray:none;stroke-opacity:1"
       d="m 25.914412,54.494214 c 0,0 4.1235,4.02046 9.32536,0.19949"
       id="path11" />
    <circle
       style="fill:none;stroke:#000000;stroke-width:1.80603;stroke-dasharray:none;stroke-opacity:1"
       id="path12"
       cx="38.44725"
       cy="41.038902"
       r="1.676649" />
  </g>
</svg>
