<?xml version="1.0" encoding="UTF-8" standalone="no"?>
<!-- Created with Inkscape (http://www.inkscape.org/) -->

<svg
   width="225"
   height="300"
   viewBox="0 0 59.531241 79.3755"
   version="1.1"
   id="svg1"
   inkscape:version="1.3.2 (091e20ef0f, 2023-11-25)"
   sodipodi:docname="char2.svg"
   xmlns:inkscape="http://www.inkscape.org/namespaces/inkscape"
   xmlns:sodipodi="http://sodipodi.sourceforge.net/DTD/sodipodi-0.dtd"
   xmlns="http://www.w3.org/2000/svg"
   xmlns:svg="http://www.w3.org/2000/svg">
  <sodipodi:namedview
     id="namedview1"
     pagecolor="#ffffff"
     bordercolor="#000000"
     borderopacity="0.25"
     inkscape:showpageshadow="2"
     inkscape:pageopacity="0.0"
     inkscape:pagecheckerboard="0"
     inkscape:deskcolor="#d1d1d1"
     inkscape:document-units="mm"
     showguides="true"
     inkscape:zoom="1.4128928"
     inkscape:cx="7.7854455"
     inkscape:cy="129.87539"
     inkscape:window-width="1920"
     inkscape:window-height="1003"
     inkscape:window-x="0"
     inkscape:window-y="0"
     inkscape:window-maximized="1"
     inkscape:current-layer="layer1">
    <sodipodi:guide
       position="106.25153,86.46068"
       orientation="1,0"
       id="guide1"
       inkscape:locked="false" />
    <sodipodi:guide
       position="116.47787,-65.677347"
       orientation="0,-1"
       id="guide2"
       inkscape:locked="false" />
  </sodipodi:namedview>
  <defs
     id="defs1" />
  <g
     inkscape:label="Layer 1"
     inkscape:groupmode="layer"
     id="layer1">
    <path
       style="fill:#ffffff;fill-opacity:1;stroke:#000000;stroke-width:2.12886;stroke-dasharray:none;stroke-opacity:1"
       d="m 13.4676,42.541611 c 0,0 -10.115956,3.989176 -0.164621,6.582652"
       id="path19" />
    <path
       style="fill:#ffffff;fill-opacity:1;stroke:#000000;stroke-width:2.12886;stroke-dasharray:none;stroke-opacity:1"
       d="m 48.885554,42.169628 c 0,0 10.115956,3.989177 0.164622,6.582652"
       id="path19-2" />
    <path
       style="fill:#000000;stroke:#000000;stroke-width:2.12886;stroke-dasharray:none;stroke-opacity:1"
       d="M 13.716142,41.86675 9.7718349,40.180894 V 15.98045 c 0,0 -0.8440281,-9.3355182 8.4067021,-9.8277307 0,0 -6.08053,8.7199777 -0.300062,10.6167017 0,0 -0.08038,-8.9165315 5.194659,-9.2143916 0,0 -3.369508,5.1258356 2.238079,6.5204376 0,0 -0.474043,-4.7140071 4.24602,-4.9645178 0,0 5.521149,10.5847698 17.028678,8.2844738 0,0 5.6665,-2.330025 5.850942,5.538767 l 0.02698,17.285245 -4.364002,2.311899"
       id="path14"
       sodipodi:nodetypes="cccccccccccc" />
    <path
       style="fill:none;stroke:#000000;stroke-width:2.12886;stroke-dasharray:none;stroke-opacity:1"
       d="m 13.354087,25.741022 v 23.615789 c 0,0 -0.755468,16.61826 17.857634,21.644303"
       id="path13"
       sodipodi:nodetypes="ccc" />
    <path
       style="fill:none;stroke:#000000;stroke-width:2.12886;stroke-dasharray:none;stroke-opacity:1"
       d="m 48.487425,25.707142 v 23.615789 c 0,0 0.755469,16.61826 -17.857634,21.644303"
       id="path13-6"
       sodipodi:nodetypes="ccc" />
    <path
       style="fill:none;stroke:#000000;stroke-width:2.12886;stroke-dasharray:none;stroke-opacity:1"
       d="M 13.277885,25.769642 H 48.79206"
       id="path15" />
    <rect
       style="fill:#ffffff;fill-opacity:1;stroke:none;stroke-width:2.15411;stroke-dasharray:none;stroke-opacity:1"
       id="rect15"
       width="32.984032"
       height="17.532452"
       x="14.427198"
       y="28.558844"
       ry="0.37529874" />
    <rect
       style="fill:#000000;fill-opacity:1;stroke:#000000;stroke-width:2.12886;stroke-dasharray:none;stroke-opacity:1"
       id="rect16"
       width="11.574842"
       height="5.9362874"
       x="16.953211"
       y="41.581276"
       ry="0.44702566" />
    <rect
       style="fill:#000000;fill-opacity:1;stroke:#000000;stroke-width:2.12886;stroke-dasharray:none;stroke-opacity:1"
       id="rect16-9"
       width="11.574842"
       height="5.9362874"
       x="33.061806"
       y="41.419865"
       ry="0.44702566" />
    <path
       style="fill:#ffffff;fill-opacity:1;stroke:#000000;stroke-width:2.12886;stroke-dasharray:none;stroke-opacity:1"
       d="m 29.604033,44.474266 h 3.324911"
       id="path16" />
    <path
       style="fill:#ffffff;fill-opacity:1;stroke:#000000;stroke-width:2.12886;stroke-dasharray:none;stroke-opacity:1"
       d="M 16.001021,38.25444 27.296022,35.227952"
       id="path17" />
    <path
       style="fill:#ffffff;fill-opacity:1;stroke:#000000;stroke-width:2.12886;stroke-dasharray:none;stroke-opacity:1"
       d="M 45.197858,38.140654 33.902857,35.114166"
       id="path17-3" />
    <path
       style="fill:#ffffff;fill-opacity:1;stroke:#000000;stroke-width:2.12886;stroke-dasharray:none;stroke-opacity:1"
       d="m 29.537963,50.850729 c 0,0 4.977183,-3.369509 5.312206,3.273156"
       id="path18" />
    <path
       style="fill:#ffffff;fill-opacity:1;stroke:#000000;stroke-width:2.12886;stroke-dasharray:none;stroke-opacity:1"
       d="m 20.068586,56.454784 h 22.252023 c 0,0 -3.060008,10.058707 -11.065474,10.656692 0,0 -7.124836,-0.123801 -11.186549,-10.656692 z"
       id="path20" />
    <path
       style="fill:#ffffff;fill-opacity:1;stroke:#000000;stroke-width:2.12886;stroke-dasharray:none;stroke-opacity:1"
       d="m 22.507249,60.989903 h 17.22442"
       id="path21" />
    <path
       style="fill:#ffffff;fill-opacity:1;stroke:#000000;stroke-width:2.12886;stroke-dasharray:none;stroke-opacity:1"
       d="m 28.081058,57.491138 v 8.451229"
       id="path22" />
    <path
       style="fill:#ffffff;fill-opacity:1;stroke:#000000;stroke-width:2.12886;stroke-dasharray:none;stroke-opacity:1"
       d="m 35.376024,57.542918 v 8.000793"
       id="path23" />
  </g>
</svg>
